<?xml version="1.0" encoding="iso-8859-1"?>
<!-- Generator: Adobe Illustrator 19.0.0, SVG Export Plug-In . SVG Version: 6.00 Build 0)  -->
<svg version="1.1" id="Layer_1" xmlns="http://www.w3.org/2000/svg" xmlns:xlink="http://www.w3.org/1999/xlink" x="0px" y="0px"
	 viewBox="0 0 512 512" style="enable-background:new 0 0 512 512;" xml:space="preserve">
<path style="fill:#C5C8F5;" d="M186.808,437.217L169.703,504.5h172.594l-17.105-67.283c-21.656,7.605-44.938,11.756-69.192,11.756
	S208.463,444.822,186.808,437.217z"/>
<path style="fill:#A8ADEF;" d="M257,448.962c-0.334,0.002-0.666,0.011-1,0.011c-24.255,0-47.537-4.15-69.192-11.756L169.703,504.5
	H257V448.962z"/>
<path style="fill:#ACABB1;" d="M256,31.431c-115.301,0-208.771,93.47-208.771,208.771c0,91.046,58.288,168.466,139.578,197.015
	c21.656,7.605,44.938,11.756,69.192,11.756s47.537-4.15,69.192-11.756c81.29-28.549,139.578-105.969,139.578-197.015
	C464.771,124.901,371.301,31.431,256,31.431z"/>
<circle style="fill:#FFFFFF;" cx="256" cy="240.2" r="60.799"/>
<circle style="fill:#FF5023;" cx="256" cy="240.2" r="18.816"/>
<path style="fill:#957755;" d="M198.021,298.181l-73.639,73.639c16.885,16.885,36.999,30.539,59.336,39.96l40.441-95.997
	C214.319,311.634,205.458,305.619,198.021,298.181z"/>
<path style="fill:#EB358A;" d="M180.044,271.13l-96.471,39.281c9.442,23.164,23.403,44.005,40.807,61.41l73.639-73.639
	C190.354,290.515,184.204,281.334,180.044,271.13z"/>
<path style="fill:#7C84E7;" d="M174.005,240.202H69.863c0,24.842,4.879,48.542,13.711,70.209l96.471-39.281
	C176.154,261.585,174.005,251.145,174.005,240.202z"/>
<path style="fill:#016EF1;" d="M180.418,208.361L84.421,167.92c-9.374,22.224-14.558,46.648-14.558,72.283h104.142
	C174.005,228.909,176.288,218.15,180.418,208.361z"/>
<path style="fill:#FE0B37;" d="M331.582,272.043c-4.15,9.84-10.165,18.7-17.603,26.138l73.639,73.639
	c16.885-16.885,30.539-36.999,39.96-59.336L331.582,272.043z"/>
<path style="fill:#3E3D43;" d="M224.159,315.784l-40.441,95.997c22.224,9.374,46.648,14.558,72.283,14.558V322.197
	C244.707,322.197,233.949,319.914,224.159,315.784z"/>
<path style="fill:#A258CB;" d="M286.928,316.157l39.281,96.471c23.164-9.442,44.005-23.403,61.41-40.807l-73.639-73.639
	C306.313,305.848,297.132,311.998,286.928,316.157z"/>
<path style="fill:#2487FF;" d="M256,322.197v104.142c24.842,0,48.542-4.879,70.209-13.711l-39.281-96.471
	C277.383,320.048,266.943,322.197,256,322.197z"/>
<path style="fill:#ACABB1;" d="M313.979,182.222l73.639-73.639c-16.885-16.885-36.999-30.539-59.336-39.96l-40.441,95.997
	C297.681,168.77,306.542,174.785,313.979,182.222z"/>
<path style="fill:#FEDA44;" d="M331.956,209.274l96.471-39.281c-9.442-23.164-23.403-44.005-40.807-61.41l-73.639,73.639
	C321.646,189.889,327.796,199.07,331.956,209.274z"/>
<path style="fill:#FF9911;" d="M337.995,240.202h104.142c0-24.842-4.879-48.542-13.711-70.209l-96.471,39.281
	C335.846,218.819,337.995,229.259,337.995,240.202z"/>
<path style="fill:#FF6342;" d="M331.582,272.043l95.997,40.441c9.374-22.224,14.558-46.648,14.558-72.283H337.995
	C337.995,251.494,335.712,262.253,331.582,272.043z"/>
<path style="fill:#00D8DF;" d="M198.021,182.222l-73.639-73.639c-16.885,16.885-30.539,36.999-39.96,59.336l95.997,40.441
	C184.568,198.521,190.583,189.66,198.021,182.222z"/>
<path style="fill:#CCFB5D;" d="M287.841,164.619l40.441-95.997C306.059,59.249,281.635,54.065,256,54.065v104.142
	C267.293,158.207,278.051,160.49,287.841,164.619z"/>
<path style="fill:#00EED1;" d="M225.072,164.246l-39.281-96.471c-23.164,9.442-44.005,23.403-61.41,40.807l73.639,73.639
	C205.687,174.556,214.868,168.406,225.072,164.246z"/>
<path style="fill:#65C27C;" d="M256,158.207V54.065c-24.842,0-48.542,4.879-70.209,13.711l39.281,96.471
	C234.617,160.356,245.057,158.207,256,158.207z"/>
<path d="M229.684,240.202c0,14.511,11.805,26.315,26.316,26.315s26.316-11.805,26.316-26.315S270.511,213.886,256,213.886
	S229.684,225.691,229.684,240.202z M267.316,240.202c0,6.239-5.076,11.315-11.316,11.315s-11.316-5.076-11.316-11.315
	c0-6.24,5.076-11.316,11.316-11.316S267.316,233.962,267.316,240.202z"/>
<path d="M248.5,433.683v0.156h7.5h7.5v-0.156c20.1-0.762,39.727-4.593,58.533-11.425l0.06,0.147l6.934-2.826
	c0.005-0.002,0.009-0.004,0.014-0.006l6.942-2.83l-0.06-0.146c18.974-8.594,36.272-20.09,51.584-34.281l0.111,0.111l5.303-5.303
	c0.014-0.014,0.027-0.028,0.04-0.041l5.263-5.262l-0.11-0.11c13.659-14.738,24.83-31.324,33.316-49.465l0.145,0.061l2.899-6.873
	c0.005-0.011,0.01-0.023,0.015-0.034l2.916-6.914l-0.147-0.062c7.333-19.451,11.432-39.813,12.222-60.721h0.156v-7.5v-7.5h-0.156
	c-0.762-20.101-4.593-39.727-11.425-58.533l0.147-0.06l-2.832-6.948l-2.83-6.942l-0.146,0.059
	c-8.594-18.974-20.09-36.272-34.281-51.584l0.111-0.111l-5.303-5.304l-5.303-5.303l-0.11,0.11
	c-14.738-13.659-31.324-24.83-49.465-33.315l0.061-0.145l-6.908-2.913l-6.913-2.916l-0.062,0.147
	C304.77,51.61,284.408,47.511,263.5,46.721v-0.156H256h-7.5v0.156c-20.1,0.762-39.727,4.593-58.533,11.425l-0.06-0.147l-6.948,2.832
	l-6.942,2.83l0.06,0.146c-18.975,8.595-36.273,20.091-51.584,34.281l-0.111-0.111l-5.303,5.303l-5.303,5.304l0.11,0.11
	c-13.659,14.738-24.831,31.324-33.316,49.465l-0.145-0.061l-2.914,6.907l-2.916,6.914l0.147,0.062
	c-7.333,19.452-11.432,39.815-12.222,60.722h-0.156v7.5v7.5h0.156c0.762,20.1,4.593,39.726,11.425,58.532l-0.147,0.06l2.832,6.948
	l2.83,6.942l0.146-0.06c8.594,18.974,20.09,36.272,34.281,51.584l-0.111,0.111l5.303,5.304l5.303,5.303l0.11-0.11
	c14.738,13.659,31.324,24.831,49.465,33.316l-0.061,0.145l6.893,2.907c0.005,0.002,0.01,0.004,0.014,0.006l6.914,2.916l0.062-0.147
	C207.229,428.794,227.591,432.892,248.5,433.683z M193.6,407.64l26.052-61.839l8.627-20.479c4.599,1.5,9.301,2.608,14.08,3.338
	c0.016,0.003,0.033,0.005,0.049,0.008c0.67,0.102,1.342,0.196,2.015,0.283c0.14,0.018,0.281,0.036,0.421,0.053
	c0.6,0.074,1.201,0.144,1.804,0.207c0.226,0.024,0.453,0.044,0.679,0.066c0.391,0.037,0.781,0.082,1.173,0.114v89.296
	C229.603,417.912,211.196,414.208,193.6,407.64z M237.042,168.16c0.158-0.042,0.314-0.088,0.472-0.129
	c1.014-0.26,2.038-0.492,3.068-0.71c0.178-0.038,0.355-0.082,0.534-0.118c1.001-0.204,2.012-0.379,3.027-0.542
	c0.214-0.034,0.426-0.076,0.64-0.109c0.974-0.148,1.958-0.266,2.945-0.375c0.258-0.028,0.514-0.067,0.772-0.093
	c0.965-0.097,1.938-0.163,2.914-0.222c0.278-0.017,0.555-0.046,0.833-0.06c1.244-0.062,2.495-0.095,3.754-0.095
	c1.28,0,2.552,0.033,3.817,0.097c0.079,0.004,0.158,0.013,0.237,0.018c29.004,1.563,53.65,19.791,64.508,45.258
	c0.03,0.071,0.063,0.141,0.093,0.213c0.424,1.002,0.821,2.017,1.201,3.041c0.048,0.129,0.1,0.257,0.147,0.386
	c0.361,0.99,0.697,1.991,1.017,3c0.05,0.158,0.105,0.315,0.154,0.474c0.308,0.995,0.59,2.001,0.857,3.012
	c0.046,0.174,0.097,0.347,0.142,0.521c0.256,0.998,0.484,2.008,0.699,3.022c0.041,0.193,0.088,0.384,0.127,0.577
	c0.201,0.989,0.374,1.988,0.536,2.991c0.036,0.224,0.08,0.447,0.114,0.672c0.147,0.967,0.263,1.943,0.372,2.922
	c0.029,0.264,0.069,0.527,0.095,0.792c0.097,0.962,0.162,1.932,0.222,2.904c0.017,0.281,0.047,0.559,0.06,0.841
	c0.062,1.244,0.095,2.495,0.095,3.754c0,1.28-0.033,2.552-0.097,3.817c-0.004,0.08-0.013,0.159-0.018,0.239
	c-1.564,28.993-19.779,53.63-45.232,64.494c-0.084,0.036-0.166,0.074-0.25,0.109c-0.987,0.417-1.988,0.809-2.997,1.184
	c-0.145,0.054-0.288,0.112-0.433,0.164c-0.972,0.355-1.955,0.684-2.945,0.999c-0.177,0.056-0.353,0.118-0.531,0.173
	c-0.977,0.303-1.966,0.579-2.959,0.842c-0.191,0.05-0.38,0.107-0.571,0.155c-0.983,0.252-1.976,0.476-2.974,0.688
	c-0.208,0.044-0.415,0.095-0.623,0.137c-0.975,0.198-1.96,0.368-2.948,0.528c-0.238,0.038-0.474,0.085-0.712,0.121
	c-0.955,0.145-1.92,0.26-2.886,0.368c-0.276,0.031-0.549,0.072-0.825,0.099c-0.953,0.096-1.914,0.16-2.877,0.219
	c-0.289,0.018-0.576,0.048-0.865,0.062c-1.243,0.062-2.494,0.095-3.752,0.095c-1.28,0-2.552-0.033-3.816-0.097
	c-0.085-0.004-0.169-0.014-0.254-0.019c-28.997-1.57-53.636-19.795-64.492-45.257c-0.03-0.071-0.063-0.141-0.093-0.213
	c-0.423-1-0.82-2.014-1.199-3.036c-0.049-0.132-0.101-0.262-0.149-0.394c-0.359-0.984-0.693-1.981-1.012-2.984
	c-0.052-0.165-0.109-0.328-0.16-0.493c-0.306-0.988-0.586-1.987-0.852-2.992c-0.048-0.181-0.101-0.36-0.147-0.541
	c-0.254-0.992-0.481-1.995-0.695-3.003c-0.042-0.199-0.091-0.396-0.131-0.596c-0.2-0.984-0.372-1.977-0.533-2.974
	c-0.037-0.23-0.082-0.458-0.117-0.688c-0.146-0.961-0.262-1.931-0.37-2.903c-0.03-0.271-0.071-0.54-0.098-0.811
	c-0.096-0.954-0.161-1.917-0.22-2.882c-0.018-0.288-0.048-0.574-0.062-0.862c-0.062-1.243-0.095-2.494-0.095-3.752
	c0-1.28,0.033-2.553,0.097-3.817c0.004-0.076,0.013-0.151,0.017-0.227c1.561-29.022,19.806-53.683,45.294-64.534
	c0.055-0.023,0.109-0.048,0.164-0.071c1.018-0.431,2.05-0.835,3.09-1.221c0.113-0.042,0.224-0.087,0.337-0.128
	c1.006-0.367,2.024-0.709,3.049-1.034c0.143-0.045,0.284-0.094,0.427-0.139C234.991,168.718,236.013,168.431,237.042,168.16z
	 M263.5,418.686v-89.297c0.373-0.031,0.743-0.072,1.115-0.108c0.248-0.024,0.497-0.046,0.744-0.072
	c0.553-0.057,1.104-0.122,1.655-0.19c0.199-0.024,0.397-0.048,0.596-0.074c0.592-0.077,1.183-0.16,1.773-0.249
	c0.144-0.022,0.287-0.043,0.43-0.066c0.635-0.098,1.268-0.204,1.9-0.316c0.083-0.015,0.165-0.03,0.247-0.045
	c3.627-0.654,7.208-1.525,10.731-2.627l16.496,40.512l17.188,42.212C299.377,414.48,281.651,417.938,263.5,418.686z
	 M330.268,402.707l-33.684-82.723c6.154-3.129,11.899-6.946,17.177-11.415l63.143,63.143
	C363.024,384.492,347.387,394.886,330.268,402.707z M417.609,316.423c-7.715,16.354-17.807,31.334-30.099,44.682l-31.571-31.571
	l-31.571-31.571c4.237-5.003,7.889-10.425,10.924-16.218l41.616,17.532L417.609,316.423z M423.438,302.601l-43.129-18.169
	l-39.189-16.51c1.501-4.604,2.61-9.311,3.34-14.096c0.001-0.007,0.002-0.014,0.003-0.021c0.103-0.676,0.198-1.353,0.285-2.032
	c0.018-0.136,0.035-0.272,0.052-0.409c0.075-0.602,0.145-1.205,0.207-1.81c0.023-0.226,0.044-0.452,0.066-0.678
	c0.037-0.391,0.082-0.781,0.114-1.173h89.296C433.71,266.598,430.007,285.005,423.438,302.601z M434.483,232.702h-89.297
	c-0.031-0.377-0.073-0.752-0.109-1.128c-0.023-0.241-0.045-0.483-0.07-0.723c-0.059-0.564-0.124-1.127-0.194-1.689
	c-0.023-0.185-0.045-0.369-0.069-0.554c-0.079-0.607-0.164-1.214-0.255-1.819c-0.019-0.125-0.038-0.25-0.057-0.375
	c-0.101-0.654-0.209-1.306-0.325-1.957c-0.011-0.06-0.022-0.119-0.032-0.179c-0.655-3.64-1.528-7.234-2.633-10.77l60.84-24.774
	l21.884-8.911C430.279,196.824,433.737,214.551,434.483,232.702z M335.783,199.618c-3.129-6.155-6.946-11.898-11.416-17.177
	l63.143-63.143c12.781,13.879,23.174,29.516,30.996,46.635L335.783,199.618z M376.903,108.692l-63.142,63.143
	c-5.002-4.237-10.425-7.89-16.218-10.925l21.849-51.863l12.83-30.454C348.574,86.308,363.555,96.399,376.903,108.692z M318.4,72.765
	l-21.643,51.375l-13.036,30.943c-4.602-1.5-9.307-2.609-14.09-3.339c-0.011-0.002-0.021-0.003-0.032-0.005
	c-0.674-0.103-1.349-0.197-2.026-0.284c-0.137-0.018-0.275-0.035-0.412-0.052c-0.602-0.075-1.205-0.145-1.809-0.207
	c-0.225-0.023-0.452-0.044-0.678-0.066c-0.391-0.037-0.781-0.082-1.174-0.114V61.718C282.396,62.491,300.803,66.195,318.4,72.765z
	 M248.5,61.718v89.298c-0.38,0.031-0.757,0.073-1.136,0.11c-0.236,0.023-0.473,0.044-0.709,0.068
	c-0.574,0.059-1.147,0.127-1.719,0.197c-0.171,0.021-0.342,0.042-0.513,0.064c-0.624,0.081-1.246,0.168-1.867,0.262
	c-0.105,0.016-0.21,0.032-0.315,0.048c-0.674,0.104-1.346,0.216-2.016,0.335c-0.036,0.006-0.071,0.013-0.107,0.019
	c-3.654,0.655-7.262,1.531-10.811,2.641l-16.496-40.512l-17.188-42.212C212.623,65.923,230.349,62.465,248.5,61.718z
	 M181.732,77.696l33.684,82.723c-6.156,3.129-11.899,6.946-17.177,11.416l-63.143-63.143
	C148.975,95.912,164.612,85.518,181.732,77.696z M94.391,163.98c7.715-16.353,17.806-31.334,30.099-44.682l63.142,63.143
	c-4.236,5.002-7.888,10.424-10.924,16.218l-19.774-8.33L94.391,163.98z M88.562,177.802l59.994,25.274l22.324,9.405
	c-1.502,4.606-2.611,9.316-3.341,14.103c-0.001,0.004-0.001,0.007-0.002,0.011c-0.103,0.678-0.198,1.357-0.286,2.038
	c-0.017,0.135-0.034,0.27-0.051,0.404c-0.075,0.604-0.145,1.208-0.208,1.814c-0.023,0.224-0.044,0.45-0.066,0.675
	c-0.038,0.392-0.082,0.783-0.114,1.175H77.516C78.29,213.806,81.993,195.399,88.562,177.802z M166.813,247.702
	c0.031,0.375,0.073,0.748,0.109,1.123c0.023,0.244,0.045,0.488,0.071,0.731c0.058,0.56,0.124,1.119,0.192,1.677
	c0.023,0.19,0.046,0.38,0.071,0.569c0.078,0.602,0.163,1.203,0.253,1.802c0.02,0.132,0.04,0.263,0.06,0.395
	c0.1,0.647,0.207,1.292,0.322,1.936c0.012,0.068,0.025,0.136,0.037,0.205c0.654,3.635,1.527,7.225,2.631,10.755l-82.724,33.684
	c-6.113-16.999-9.571-34.725-10.317-52.876h89.295V247.702z M124.49,361.104c-12.781-13.879-23.174-29.516-30.995-46.635
	l48.88-19.903l33.843-13.78c3.129,6.155,6.946,11.898,11.415,17.176l-6.226,6.226L124.49,361.104z M198.239,308.569
	c5.002,4.236,10.425,7.889,16.218,10.924l-34.678,82.317c-16.354-7.715-31.334-17.807-44.683-30.099L198.239,308.569z"/>
<path d="M187.701,240.202c0,37.66,30.639,68.299,68.299,68.299s68.299-30.639,68.299-68.299s-30.639-68.3-68.299-68.3
	S187.701,202.542,187.701,240.202z M309.299,240.202c0,29.389-23.91,53.299-53.299,53.299s-53.299-23.91-53.299-53.299
	c0-29.39,23.91-53.3,53.299-53.3S309.299,210.813,309.299,240.202z"/>
<path d="M472.271,240.202c0-57.769-22.496-112.079-63.344-152.927S313.768,23.931,256,23.931S143.921,46.427,103.073,87.275
	s-63.344,95.158-63.344,152.927c0,89.402,55.236,169.591,138.149,201.701L163.871,497h-44.386v15h40.573h191.884h40.572v-15h-44.386
	l-14.007-55.097C417.035,409.793,472.271,329.604,472.271,240.202z M54.729,240.202c0-110.981,90.29-201.271,201.271-201.271
	s201.271,90.29,201.271,201.271c0,85.342-54.077,161.672-134.564,189.938c-1.338,0.47-2.68,0.925-4.026,1.366
	c-20.191,6.615-41.256,9.966-62.681,9.966s-42.489-3.351-62.681-9.966c-1.346-0.441-2.688-0.896-4.026-1.366
	C108.806,401.874,54.729,325.544,54.729,240.202z M319.905,446.858l6.317,24.849H185.778l6.317-24.849
	c0.161,0.05,0.323,0.095,0.484,0.145c0.536,0.164,1.075,0.322,1.612,0.482c0.846,0.252,1.693,0.503,2.542,0.744
	c0.574,0.164,1.15,0.322,1.725,0.48c0.82,0.226,1.64,0.448,2.462,0.664c0.587,0.154,1.174,0.306,1.761,0.455
	c0.822,0.209,1.646,0.412,2.47,0.611c0.583,0.141,1.166,0.281,1.75,0.417c0.846,0.197,1.694,0.385,2.542,0.572
	c0.561,0.123,1.122,0.249,1.684,0.368c0.922,0.195,1.846,0.379,2.771,0.562c0.487,0.096,0.974,0.198,1.462,0.291
	c1.296,0.247,2.595,0.481,3.896,0.704c0.117,0.02,0.233,0.043,0.35,0.063c1.414,0.24,2.832,0.464,4.252,0.676
	c0.47,0.07,0.94,0.132,1.411,0.199c0.957,0.136,1.914,0.271,2.873,0.395c0.561,0.072,1.123,0.137,1.685,0.205
	c0.873,0.106,1.747,0.209,2.622,0.304c0.593,0.064,1.186,0.124,1.779,0.183c0.851,0.085,1.703,0.167,2.556,0.242
	c0.602,0.053,1.204,0.104,1.807,0.152c0.855,0.068,1.711,0.13,2.568,0.189c0.593,0.04,1.186,0.081,1.779,0.116
	c0.886,0.053,1.773,0.097,2.66,0.139c0.564,0.027,1.128,0.056,1.692,0.079c0.972,0.039,1.946,0.066,2.92,0.092
	c0.477,0.013,0.954,0.03,1.432,0.04c1.451,0.029,2.903,0.045,4.357,0.045s2.906-0.017,4.357-0.045
	c0.478-0.009,0.955-0.027,1.432-0.04c0.974-0.026,1.948-0.053,2.92-0.092c0.565-0.022,1.128-0.052,1.692-0.079
	c0.887-0.042,1.774-0.086,2.66-0.139c0.594-0.035,1.186-0.076,1.779-0.116c0.857-0.058,1.713-0.12,2.568-0.189
	c0.603-0.048,1.205-0.099,1.807-0.152c0.853-0.075,1.705-0.157,2.556-0.242c0.593-0.059,1.187-0.119,1.779-0.183
	c0.875-0.095,1.749-0.199,2.622-0.304c0.562-0.068,1.124-0.133,1.685-0.205c0.959-0.124,1.916-0.258,2.873-0.395
	c0.47-0.067,0.941-0.129,1.411-0.199c1.42-0.212,2.837-0.436,4.252-0.676c0.117-0.02,0.233-0.043,0.35-0.063
	c1.301-0.223,2.6-0.457,3.896-0.704c0.488-0.093,0.974-0.194,1.462-0.291c0.925-0.183,1.849-0.367,2.771-0.562
	c0.562-0.119,1.123-0.245,1.684-0.368c0.848-0.186,1.696-0.375,2.542-0.572c0.584-0.136,1.167-0.276,1.75-0.417
	c0.824-0.199,1.648-0.402,2.47-0.611c0.588-0.149,1.175-0.301,1.761-0.455c0.822-0.216,1.642-0.439,2.462-0.664
	c0.575-0.159,1.151-0.317,1.725-0.48c0.849-0.242,1.696-0.492,2.542-0.744c0.538-0.16,1.076-0.317,1.612-0.482
	C319.582,446.954,319.744,446.908,319.905,446.858z M179.348,497l2.617-10.293h148.071L332.652,497H179.348z"/>
<polygon style="fill:#FEDA44;" points="256.444,103.795 288.395,7.5 224.493,7.5 "/>
<polygon style="fill:#EEBF00;" points="256.806,7.5 224.493,7.5 256.444,103.795 256.806,102.705 "/>
<path d="M256.444,127.61L214.102,0h84.684L256.444,127.61z M234.883,15l21.561,64.979L278.005,15H234.883z"/>
<g>
</g>
<g>
</g>
<g>
</g>
<g>
</g>
<g>
</g>
<g>
</g>
<g>
</g>
<g>
</g>
<g>
</g>
<g>
</g>
<g>
</g>
<g>
</g>
<g>
</g>
<g>
</g>
<g>
</g>
</svg>
